<svg width="1300" height="1300" viewBox="0 0 1300 1300" fill="none" xmlns="http://www.w3.org/2000/svg">
<circle cx="650" cy="650" r="650" fill="#3D006C"/>
<rect width="258" height="514.003" rx="23" transform="matrix(0.999914 -0.0130896 -0.707107 0.707107 702.464 521.156)" fill="#31353D"/>
<path d="M701.568 523.446L847.65 521.534L485.092 884.091L362.008 885.703C349.307 885.869 346.292 878.722 355.274 869.74L701.568 523.446Z" fill="#242424" fill-opacity="0.61"/>
<rect width="188.037" height="371.13" rx="23" transform="matrix(0.999914 -0.0130896 -0.707107 0.707107 707.438 566.322)" fill="#212226" fill-opacity="0.95"/>
<rect width="194.172" height="371.13" rx="23" transform="matrix(0.999914 -0.0130896 -0.707107 0.707107 700.438 544.649)" fill="#47587A"/>
<path d="M698.469 544.375L844.781 542.459L582.256 804.984L458.942 806.599C446.241 806.765 443.225 799.618 452.208 790.636L698.469 544.375Z" fill="#3D3C3C" fill-opacity="0.53"/>
<path d="M671.121 433.506C680.189 424.523 697.804 417.06 710.506 416.894L813.896 415.541C816.594 415.505 819.608 415.134 822.798 414.445L913.774 394.782C926.053 392.128 934.58 394.395 934.58 400.314L934.58 422.134C934.58 424.832 932.79 428.076 929.456 431.424L601.206 760.952C592.252 769.941 574.663 777.381 561.937 777.562L347.45 780.61C339.963 780.716 335.509 778.244 335.509 773.983L335.509 756.445C335.509 753.735 337.375 750.412 340.748 747.048C473.643 614.546 541.795 561.621 671.121 433.506Z" fill="#4C402D"/>
<path d="M671.201 413.42C680.183 404.438 697.761 397.022 710.462 396.855L922.444 394.08C935.146 393.914 938.161 401.061 929.179 410.043L598.251 740.971C589.269 749.953 571.691 757.369 558.989 757.535L347.008 760.31C334.306 760.476 331.291 753.33 340.273 744.348L671.201 413.42Z" fill="#7A7162"/>
<path d="M787.341 541.983C790.281 538.943 800.596 549.065 800.039 554.443L793.151 620.915C793.057 621.818 792.756 622.538 792.259 623.046L595.944 823.498C591.377 828.161 575.71 814.047 574.248 803.952L569.757 772.939C569.267 769.56 569.81 766.951 571.329 765.38L787.341 541.983Z" fill="#5F1910"/>
<path d="M333.53 754.668C333.028 750.412 341.135 742.121 345.635 742.29L585.428 751.269C587.108 751.332 588.186 752.16 588.514 753.638L601.623 812.745C603.162 819.686 589.079 834.515 581.064 834.394L348.174 830.865C344.511 830.81 342.289 828.916 341.887 825.506L333.53 754.668Z" fill="#5F1910"/>
<rect width="107" height="52.8387" rx="5" transform="matrix(0.999943 -0.0107048 -0.693611 0.72035 744.28 398.158)" fill="#D7E7EA" stroke="#C2DADD" stroke-width="5"/>
<path d="M708.126 437.78C706.784 437.434 704.705 436.12 707.12 433.631C709.534 431.143 729.586 409.78 739.31 399.409C740.483 398.199 744.138 395.78 749.369 395.78H773.009C763.36 404.355 745.409 418.659 745.509 428.28C745.509 428.281 745.509 428.284 745.508 428.289L744.34 437.78H708.126Z" fill="#ACCBCF"/>
<path d="M535.961 548.66C538.695 545.926 544.044 543.669 547.91 543.619L786.89 540.49C793.516 540.403 795.09 544.132 790.403 548.818L590.473 748.748C585.787 753.435 576.616 757.304 569.989 757.391L356.007 760.192C338.336 760.423 334.141 750.48 346.637 737.983L535.961 548.66Z" fill="#681E14"/>
<path d="M538.082 546.539C539.644 544.977 542.701 543.687 544.91 543.658L786.89 540.49C793.516 540.403 795.09 544.132 790.403 548.818L768.567 570.655C763.881 575.341 754.71 579.21 748.083 579.297L510.103 582.412C505.685 582.47 504.637 579.984 507.761 576.86L538.082 546.539Z" fill="#621B12"/>
<path d="M509.771 575.849C511.06 574.56 513.583 573.496 515.405 573.472L765.133 570.203C767.867 570.168 768.516 571.706 766.582 573.639C764.649 575.572 760.865 577.169 758.131 577.205L511.704 580.43C508.059 580.478 507.193 578.427 509.771 575.849Z" fill="#5D1A11"/>
</svg>
